<svg width="60" height="59" viewBox="0 0 60 59" fill="none" xmlns="http://www.w3.org/2000/svg">
<path d="M59.2798 57.5091L58.0319 56.3201C57.4369 55.5321 56.7718 54.7995 56.0446 54.1314L56.0324 54.1216C55.2987 53.4551 54.5364 52.8213 53.7454 52.2203C53.1116 51.7847 52.2404 51.2598 51.1317 50.6457C50.2321 50.2464 49.5151 49.5241 49.1223 48.6216L49.1125 48.597L48.9946 48.5381C49.5154 48.4865 49.9919 48.3907 50.4488 48.2556L50.3923 48.2703L51.7925 47.8846C52.3722 47.7029 53.0429 47.585 53.738 47.5579H53.7528C54.4848 47.5285 55.1751 47.4106 55.8334 47.2165L55.772 47.2312C56.0897 47.1526 56.4164 47.0634 56.7521 46.9635C57.0878 46.8636 57.3752 46.7743 57.6143 46.6957V46.2806C57.3769 45.9252 57.0895 45.5191 56.7521 45.0622C56.4392 44.6347 56.0736 44.2484 55.6639 43.9126L55.6516 43.9027C54.6215 42.9922 53.5546 42.1112 52.4509 41.2596C51.4161 40.4556 50.3412 39.7046 49.2304 39.0095L49.0634 38.9112C48.4228 38.4925 47.7443 38.1347 47.0368 37.8427L46.9533 37.8132C46.2196 37.5151 45.4966 37.1884 44.7842 36.833C44.5276 36.7074 44.2584 36.6094 43.981 36.5407L43.954 36.5358C43.6769 36.4807 43.4261 36.3346 43.2416 36.1207L43.2391 36.1182C42.8907 35.6556 42.598 35.1534 42.3671 34.6222L42.3474 34.5731C42.11 34.0179 41.8529 33.4849 41.5761 32.974C40.9817 31.8243 40.4068 30.6559 39.8517 29.4686C39.2965 28.2813 38.7635 27.0924 38.2525 25.9018C37.8972 25.1092 37.5704 24.3174 37.2724 23.5264C36.971 22.7201 36.5917 21.9452 36.14 21.2124L36.1719 21.2689C35.193 19.5906 34.1006 17.9812 32.9024 16.4518L32.9711 16.5452C31.8747 15.1564 30.6767 13.8509 29.3872 12.6394L29.3675 12.6222C28.0993 11.4324 26.7606 10.32 25.3586 9.29125L25.2382 9.20527C23.7709 8.13917 22.166 7.08944 20.4236 6.0561C19.6829 5.62409 18.8848 5.29908 18.0531 5.09071L17.9892 5.07597L15.2552 4.39307L13.7101 4.27516C13.1958 4.23586 12.6808 4.21621 12.1649 4.21621C11.8171 4.03414 11.497 3.80337 11.2143 3.53086C10.9411 3.27097 10.6514 3.02892 10.3472 2.8062L10.3226 2.78901C8.72694 1.86823 7.04634 1.1032 5.30406 0.504501L5.09526 0.440633C4.66196 0.192732 4.17844 0.0454701 3.68051 0.00975197C3.18259 -0.0259661 2.683 0.0507741 2.21875 0.234291L2.24086 0.226921C1.7837 0.406198 1.37169 0.68405 1.03415 1.0407C0.696604 1.39735 0.441835 1.82402 0.287975 2.29035L0.280606 2.31491C0.0199333 2.94089 -0.0647571 3.62619 0.0356822 4.2968C0.136122 4.9674 0.417873 5.59782 0.850504 6.11996L0.845591 6.11259C1.73647 7.29988 2.41936 8.23333 2.89428 8.91295C3.24964 9.38951 3.61647 9.88489 3.99477 10.3991C4.34113 10.8609 4.64819 11.3891 4.89629 11.9467L4.91594 11.9983C5.0535 12.2906 5.17387 12.6394 5.2623 12.998L5.26967 13.0373C5.34828 13.3747 5.44735 13.7415 5.5669 14.1378C5.92227 15.0484 6.2588 15.9818 6.57651 16.9382C6.92287 17.9822 7.30607 18.8665 7.75069 19.7091L7.70402 19.6108C7.94148 20.0464 8.17975 20.4722 8.41885 20.8882C8.65794 21.3041 8.91505 21.7103 9.19018 22.1066C9.3462 22.342 9.54743 22.5441 9.78218 22.701L9.78955 22.706C9.91257 22.7942 10.0139 22.9093 10.0858 23.0425C10.1577 23.1757 10.1984 23.3236 10.2047 23.4748C9.91487 23.9053 9.73211 24.4013 9.67164 24.9168L9.66919 24.9315C9.59212 25.5101 9.46639 26.0812 9.29335 26.6388L9.313 26.5651C8.73516 28.3342 8.44407 30.1843 8.45078 32.0454C8.45078 32.6792 8.48272 33.3031 8.54904 33.9197L8.54167 33.8435C8.68906 36.1968 9.39897 38.3585 10.5363 40.2303L10.5019 40.1689C10.9858 40.8936 11.5042 41.5249 12.0765 42.1021C12.409 42.4762 12.857 42.7284 13.3492 42.8187C13.8414 42.9091 14.3497 42.8324 14.7934 42.6008L14.7811 42.6057C15.2067 42.4557 15.5782 42.1824 15.8481 41.8206C16.1179 41.4589 16.2741 41.025 16.2967 40.5742V40.5693C16.4146 39.405 16.5915 38.3634 16.8347 37.3464L16.8027 37.511C16.865 37.3453 16.8966 37.1697 16.8961 36.9927L16.8912 36.8822V36.8871C16.8715 36.7086 16.9804 36.5399 17.2179 36.3811V36.499C17.4553 37.0541 17.7026 37.6085 17.9597 38.162C18.2168 38.7155 18.4838 39.2699 18.7605 39.825C19.4852 40.928 20.2541 41.8909 21.0991 42.7777L21.0917 42.7703C21.9323 43.6781 22.8595 44.5016 23.8601 45.2292L23.9142 45.2661C24.435 45.664 24.8919 46.0939 25.3045 46.5631L25.3144 46.5729C25.7025 47.0298 26.1668 47.4056 26.69 47.6881L26.7145 47.7004V47.6415H26.8325C26.7392 47.4328 26.5851 47.2573 26.3903 47.1379L26.3854 47.1354C26.2052 47.0361 26.032 46.9245 25.8671 46.8014L25.8793 46.8087C25.524 46.4534 25.1571 46.057 24.7789 45.6198C24.4006 45.1825 24.0542 44.7666 23.7398 44.3719C22.9079 43.2223 22.1144 42.0211 21.3595 40.7683C20.6045 39.5155 19.8913 38.2422 19.2199 36.9485C18.9022 36.3147 18.5951 35.6613 18.2987 34.9883C18.0023 34.3152 17.7149 33.6618 17.4365 33.028C17.3105 32.7704 17.2307 32.4927 17.2007 32.2075V32.1953C17.1941 32.0603 17.1525 31.9294 17.0802 31.8153C17.0079 31.7012 16.9072 31.6079 16.788 31.5443L16.7831 31.5418C16.5018 32.0253 16.1655 32.4746 15.7809 32.8806L15.7833 32.8782C15.3888 33.2939 15.0711 33.7763 14.8449 34.3029L14.8327 34.3348C14.465 35.242 14.226 36.1962 14.1227 37.1696L14.1178 37.2163C13.9999 38.266 13.8812 39.3452 13.7616 40.4539L13.6437 40.5128L13.5848 40.5718C13.2773 40.5101 12.9875 40.3804 12.7367 40.192C12.4859 40.0037 12.2805 39.7617 12.1355 39.4836L12.1306 39.4713C11.8325 38.8965 11.5656 38.3315 11.3298 37.7763C10.6863 36.0927 10.3348 34.3116 10.2907 32.5097V32.4876C10.1631 30.5622 10.4015 28.6301 10.9932 26.7935L10.9637 26.9016C11.0816 26.466 11.3388 25.7323 11.7351 24.7006C12.1314 23.6689 12.2108 22.9557 11.9733 22.561C11.8562 22.1704 11.6304 21.8211 11.3224 21.5539L11.3199 21.5514C11.0263 21.2971 10.7513 21.0221 10.497 20.7285L10.4896 20.7187C10.2129 20.3191 9.94595 19.8933 9.68884 19.4413C9.43173 18.9893 9.2041 18.5439 9.00594 18.105C8.54853 17.0227 8.15964 15.9126 7.84158 14.7814L7.78754 14.5628C7.43802 13.2988 6.98956 12.0643 6.44631 10.8708L6.51018 11.028C6.25604 10.4447 5.93451 9.89314 5.55216 9.38459L5.5669 9.40425C5.16732 8.87038 4.81031 8.36516 4.49589 7.88861C4.0963 7.37439 3.69999 6.87901 3.30696 6.40246C2.8974 5.90641 2.54628 5.36488 2.26051 4.78856L2.2384 4.73943C2.11272 4.48282 2.01472 4.21355 1.94608 3.93617L1.94117 3.90915C1.89897 3.7696 1.88788 3.6225 1.90867 3.4782C1.92947 3.3339 1.98165 3.19591 2.06154 3.07396L2.05908 3.07887C2.08534 2.94604 2.14734 2.82289 2.2384 2.72268C2.33786 2.63379 2.45904 2.57278 2.58968 2.54582H2.59459C2.7884 2.42012 3.0112 2.34622 3.24171 2.33117C3.47222 2.31611 3.70274 2.36042 3.91125 2.45984L3.90388 2.45738C4.44184 2.60969 4.87664 2.76199 5.3016 2.93639L5.21317 2.90446C5.96485 3.22216 6.65839 3.52922 7.29379 3.82563C8.02582 4.17445 8.64976 4.54292 9.23931 4.95315L9.19509 4.92367C9.51279 5.12182 9.82967 5.33963 10.1457 5.57709C10.4618 5.81454 10.7983 6.05282 11.1553 6.29191H11.9881C12.6218 6.29191 13.2949 6.32221 14.0073 6.3828C14.727 6.4393 15.3927 6.57441 16.0265 6.78566L15.9675 6.76847C17.1491 7.11974 18.1636 7.53488 19.1265 8.03354L19.0258 7.98687C19.997 8.48144 20.9181 9.0063 21.7893 9.56146C23.2362 10.463 24.4865 11.3866 25.6632 12.3962L25.6214 12.3618C26.8496 13.4132 27.9649 14.4916 29.0113 15.6314L29.0359 15.6608C30.0578 16.7761 31.033 17.9871 31.9247 19.2571L32.0008 19.3725C32.8213 20.532 33.6491 21.8732 34.3934 23.2636L34.4966 23.4724C34.7159 23.8986 34.9079 24.3384 35.0714 24.789L35.0984 24.8701C35.2573 25.3254 35.435 25.7921 35.6315 26.2703C36.0671 27.2611 36.5338 28.2608 37.0317 29.2696C37.5295 30.2784 37.9962 31.2593 38.4318 32.2125L39.7387 35.0644C40.198 36.0617 40.7114 36.9215 41.3084 37.7149L41.2813 37.6781C41.78 38.2111 42.4457 38.5845 43.1925 38.7147L43.2121 38.7172C44.1161 38.9431 44.8776 39.1986 45.6145 39.5008L45.4991 39.459C45.8503 39.6187 46.3023 39.7882 46.7666 39.938L46.8649 39.965C47.3856 40.1247 47.8376 40.336 48.2528 40.6013L48.2307 40.589C49.0339 41.0385 49.7144 41.4807 50.3629 41.9621L50.3113 41.9253C50.9843 42.4199 51.6574 42.8866 52.3305 43.3255C52.6482 43.5629 53.1812 43.9093 53.9296 44.3645C54.678 44.8198 55.0743 45.2456 55.1186 45.6419C53.6135 45.5897 52.1068 45.6612 50.6134 45.8556L50.751 45.8409C49.5038 46.0028 48.2827 46.3248 47.1179 46.7989L47.2161 46.7645C46.9074 46.8954 46.5887 47.0014 46.263 47.0814L46.2164 47.0912C46.0472 47.1155 45.8909 47.1957 45.7726 47.319C45.6542 47.4423 45.5804 47.6016 45.5629 47.7717C45.7128 47.9583 45.8332 48.177 45.9142 48.4128L45.9191 48.4275C46.0026 48.6781 46.1034 48.8943 46.2262 49.0957L46.2188 49.0809C46.5111 49.5993 46.8256 50.0463 47.1793 50.459L47.1695 50.4467C47.5158 50.8742 47.9064 51.2451 48.3387 51.562L48.3559 51.5743C48.7555 51.892 49.1715 52.2187 49.6038 52.5544C49.9993 52.8639 50.4464 53.1685 50.9106 53.4436L50.9696 53.4755C51.6672 53.903 52.4779 54.3107 53.3229 54.6522L53.4359 54.6915C54.3546 55.06 55.1431 55.4874 55.8752 55.9959L55.8358 55.9689C56.3124 56.2456 56.7873 56.5527 57.2606 56.89C57.7339 57.2274 58.1891 57.5541 58.6264 57.8701C58.8057 58.047 58.9629 58.2435 59.0956 58.4572L59.1029 58.4695C59.3295 58.7308 59.6443 58.8996 59.9873 58.9436H59.9946V58.8257C59.7774 58.6613 59.6189 58.4314 59.5426 58.1698L59.5402 58.16C59.484 57.9235 59.3911 57.6972 59.2651 57.4894L59.27 57.4992L59.2798 57.5091ZM13.6486 10.3328C13.3309 10.3328 13.0337 10.3426 12.757 10.3623C12.4869 10.3796 12.2203 10.4316 11.9635 10.517L11.9856 10.5097V10.5686H12.1035C12.2624 10.8061 12.4622 11.073 12.7029 11.3694C12.9436 11.6658 13.1614 11.9532 13.3563 12.2316L14.307 14.1919L14.4249 14.1329C14.7015 13.9338 14.9161 13.6604 15.0439 13.3444L15.0488 13.3321C15.1766 12.9907 15.2503 12.5927 15.2503 12.18L15.2478 12.0474V12.0548C15.1364 11.9464 15.0464 11.8181 14.9825 11.6765L14.98 11.6691L14.7811 11.222C14.6537 11.0185 14.4715 10.8551 14.2554 10.7504L14.248 10.7479C14.0273 10.6425 13.8249 10.5024 13.6486 10.3328Z" fill="#E6E6E6"/>
</svg>
